<svg xmlns="http://www.w3.org/2000/svg"  viewBox="0 0 48 48" width="480px" height="480px" baseProfile="basic"><path fill="#373837" d="M33.749,5.919c-3.643,0.033-7.287,0.067-10.93,0.1c-1.339,0.012-2.491-0.055-3.83-0.043 c-1.313,0.012-2.838-0.092-4.151-0.057c-2.022,0.054-4.115,0.042-5.771,1.203c-1.433,1.005-2.521,3.025-2.929,4.727 c-0.408,1.702-0.208,3.465-0.197,5.215c0.035,5.814,0.07,11.29,0.106,17.103c0.012,1.974,0.3,3.885,1.67,5.498 c0.675,0.795,1.573,1.373,2.502,1.845c1.473,0.747,3.112,0.823,4.501,0.823c6.072,0,12.049-0.01,18.12-0.175 c0.838-0.023,1.682-0.046,2.498-0.239c1.777-0.42,3.575-1.51,4.588-3.03c1.013-1.52,1.657-3.063,1.746-4.887 c0.059-1.208,0.165-3.166,0.139-4.673c-0.077-4.58,0.067-9.206-0.01-13.786c-0.026-1.568-0.082-2.875-0.464-4.396 c-0.381-1.521-1.469-3.196-2.728-4.13C37.35,6.082,35.89,5.919,33.749,5.919"/><path fill="#8a4581" d="M16.54,36.54c-1.39,1.79-4.124,3.733-6.024,4.963c-1.114-0.272-1.998-1.008-2.734-2.043 c2.05-1.04,4.629-2.89,6.089-4.66l0.08-0.09c0.41,0.4,0.87,0.74,1.33,1.08C15.68,36.1,16.09,36.35,16.54,36.54z"/><path fill="#4b7bb2" d="M31.55,30.67c-0.94,0.12-1.87,0.12-2.73-0.03c-0.08-0.01-0.15-0.03-0.23-0.05l-0.01,0.05 c-0.29,0.44-0.72,0.9-1.1,1.27c-0.62,0.62-1.33,0.93-2.07,1.4c-0.54,0.34-1.09,0.68-1.66,0.97c-0.69,0.37-1.44,0.67-2.22,0.74 c-1.37,0.13-2.5,0-3.67-0.5l0.02-0.04c0.62-1.2,1.51-3.45,1.69-4.78c0.18-1.34,0.04-2.73-0.52-3.95c-0.14-0.29-0.3-0.57-0.53-0.79 c-0.34-0.33-0.81-0.5-1.28-0.63c-0.87-0.23-1.8-0.32-2.69-0.14s-1.74,0.64-2.29,1.37c-0.26,0.34-0.45,0.73-0.63,1.12 c-0.24,0.5-0.48,1.01-0.55,1.56c-0.08,0.64,0.09,1.29,0.28,1.92c0.52,1.67,1.29,3.31,2.55,4.52c0.01,0.01,0.03,0.02,0.04,0.03 c0.41,0.4,0.87,0.74,1.33,1.08c0.4,0.31,0.81,0.56,1.26,0.75c0.17,0.08,0.33,0.14,0.51,0.2c0.6,0.21,1.94,0.47,2.56,0.56 c1.96,0.28,3.36-0.04,5.25-0.69c2.84-0.98,4.92-3.39,6.71-5.8L31.55,30.67z M16.91,29.07c-0.12,1.25-0.57,2.47-1.29,3.51 l-0.09,0.07c-0.66-0.92-1-1.88-1.45-3.08c-0.17-0.47-0.34-0.98-0.19-1.45c0.08-0.24,0.24-0.45,0.41-0.64 c0.4-0.43,0.96-0.79,1.53-0.68c0.45,0.09,0.8,0.47,0.97,0.9C16.96,28.13,16.96,28.61,16.91,29.07z"/><path fill="#16b7b8" d="M19.61,37.3c1.96,0.28,3.36-0.04,5.25-0.69c2.84-0.98,4.92-3.39,6.71-5.8l-0.02-0.14 c-0.94,0.12-1.87,0.12-2.73-0.03c-0.08-0.01-0.15-0.03-0.23-0.05l-0.01,0.05c-0.29,0.44-0.72,0.9-1.1,1.27 c-0.62,0.62-1.33,0.93-2.07,1.4c-0.54,0.34-1.09,0.68-1.66,0.97c-0.69,0.37-1.44,0.67-2.22,0.74c-1.37,0.13-2.5,0-3.67-0.5 l0.02-0.04c-0.859-0.316-1.675-0.561-2.35-1.83c-0.66-0.92-1-1.88-1.45-3.08c-0.17-0.47-0.34-0.98-0.19-1.45 c-0.577,1.46-0.79,3.563-0.332,6.157c0.119,0.133,0.222,0.279,0.352,0.403c0.01,0.01,0.03,0.02,0.04,0.03 c0.41,0.4,0.87,0.74,1.33,1.08c0.4,0.31,0.81,0.56,1.26,0.75c0.17,0.08,0.33,0.14,0.51,0.2C17.65,36.95,18.99,37.21,19.61,37.3z"/><path fill="#9fdadf" d="M41.735,21.656c-0.865,0.97-1.787,1.888-2.815,2.684c-0.89,0.68-1.55,1.27-2.49,1.86 c-0.42,0.26-0.89,0.54-1.3,0.8c-0.38,0.24-1.01,0.45-1.42,0.63c-0.15,0.07-0.31,0.13-0.47,0.17l-0.01-0.03 c1.29-2.33,2.08-5.44,1.92-8.1c-0.16-2.67-1.28-5.3-3.24-7.1c-0.58-0.53-1.24-0.98-1.98-1.24c-0.58-0.2-1.2-0.28-1.82-0.33 c-0.96-0.08-1.94-0.11-2.87,0.13c-1.37,0.35-2.55,1.29-3.35,2.46c-0.8,1.18-1.23,2.57-1.41,3.98c-0.52,3.98,0.86,8.91,4.2,11.14 c0.91,0.62,2.46,1.56,3.91,1.88c0.08,0.02,0.15,0.04,0.23,0.05c0.86,0.15,1.79,0.15,2.73,0.03c1.81-0.21,3.68-0.82,5.18-1.54 c1.979-0.942,3.494-2.251,5.005-3.763V21.656z M32.23,19.73c-0.1,2.86-0.54,5.59-2,8.33c-0.36-0.04-0.74-0.11-1.13-0.2 c-0.81-0.19-1.57-0.59-1.83-0.78c-3.12-2.28-4.67-6.15-3.93-9.94c0.1-0.48,0.23-0.95,0.44-1.38c0.36-0.72,0.97-1.31,1.69-1.67 c0.76-0.37,1.65-0.49,2.48-0.32c1.78,0.35,3.09,1.91,3.83,3.57c0.18,0.42,0.35,0.86,0.41,1.32C32.25,19.02,32.24,19.38,32.23,19.73 z"/><path fill="#d4e2a9" d="M41.735,21.672c-0.983,1.082-4.162,4.417-7.157,5.767c-2.052,0.925-5.294,0.989-7.185-0.372 c-3.268-2.352-4.236-8.115-4.236-8.115c0,2.197,0.381,8.964,5.422,11.687c2.378,0.645,6.317,0.538,13.155-4.987V21.672z"/><path fill="#febf10" d="M41.735,21.606c-1.312,1.414-4.374,4.513-7.157,5.833c-0.158,0.075-0.32,0.097-0.481,0.146 L34.086,27.6c4.196-0.499,6.095-1.122,7.649-2.055V21.606z"/><path fill="#74cccf" d="M24.36,11.448c-1.014,0.46-1.505,1.12-2.147,1.794c2.756-1.585,5.252-0.741,7.078,0.594 c3.933,3.071,3.553,10.635,0.939,14.224c0,0,1.885,0.075,2.853,0.075c2.011-4.041,2.011-7.109,2.011-9.089 C35.093,16.098,31.414,8.245,24.36,11.448z"/><path fill="#010101" d="M42.261,14.19c-0.1-2.034-0.461-4.043-1.639-5.746c-0.99-1.431-2.328-2.499-4.062-2.824	c-0.926-0.174-1.872-0.198-2.812-0.2c-4.843,0.044-9.683,0.048-14.525,0.056c-2.161,0.004-4.322-0.142-6.481,0.027	c-1.953,0.153-3.793,0.722-5.094,2.262c-1.245,1.473-2.01,3.341-2.202,5.254c-0.119,1.186-0.036,2.38-0.011,3.568	c0.026,1.228,0.019,2.458,0.027,3.686c0.015,2.427,0.03,4.853,0.045,7.28c0.015,2.405-0.042,4.823,0.054,7.226	c0.079,1.968,0.578,3.914,1.941,5.397c1.387,1.51,3.408,2.366,5.417,2.58c2.31,0.246,4.703,0.08,7.023,0.073	c2.477-0.007,4.954-0.023,7.43-0.058c1.241-0.018,2.483-0.04,3.724-0.068c1.186-0.027,2.39-0.007,3.569-0.159	c1.876-0.243,3.736-1.156,5.025-2.553c1.276-1.383,2.148-3.307,2.402-5.165c0.268-1.96,0.238-4.013,0.211-5.987	C42.237,23.961,42.501,19.063,42.261,14.19z M10.011,40.833c-0.592-0.331-1.105-0.726-1.55-1.171c0.99-0.542,1.945-1.15,2.845-1.829	c0.961-0.726,1.884-1.516,2.682-2.42c0.576,0.489,1.164,0.908,1.789,1.25c-0.723,0.814-1.558,1.532-2.412,2.202	c-0.968,0.761-1.985,1.46-3.017,2.132C10.236,40.942,10.123,40.896,10.011,40.833z M17.343,29.616	c0.152-0.945,0.193-2.033-0.51-2.781c-0.704-0.75-1.73-0.653-2.498-0.059c-0.918,0.709-1.168,1.635-0.807,2.724	c0.577,1.737,1.328,3.668,2.882,4.755c1.73,1.211,4.033,1.68,6.09,1.086c1.353-0.391,2.51-1.227,3.712-1.928	c1.032-0.602,1.899-1.331,2.61-2.282c0.586,0.1,1.182,0.142,1.782,0.127c-1.6,2.07-3.467,4.043-5.991,4.91	c-1.482,0.509-2.969,0.845-4.544,0.687c-1.157-0.116-2.466-0.332-3.514-0.855c-1.318-0.657-2.551-1.733-3.353-2.967	c-0.77-1.184-1.483-2.729-1.626-4.149c-0.078-0.778,0.244-1.466,0.577-2.148c0.36-0.737,0.798-1.348,1.545-1.729	c0.68-0.346,1.448-0.444,2.202-0.397c0.789,0.049,1.926,0.214,2.435,0.892c0.956,1.274,0.974,3.32,0.612,4.797	c-0.299,1.219-0.763,2.415-1.314,3.548c-0.318-0.17-0.625-0.358-0.902-0.583c-0.213-0.174-0.401-0.379-0.578-0.598	C16.747,31.739,17.167,30.707,17.343,29.616z M15.542,31.739c-0.144-0.264-0.278-0.531-0.393-0.795	c-0.373-0.853-1.215-2.313-0.493-3.112c0.419-0.464,1.105-0.827,1.553-0.187c0.281,0.401,0.251,0.959,0.205,1.421	C16.32,30.014,16.002,30.913,15.542,31.739z M32.471,22.688c0.271-1.866,0.528-3.836-0.265-5.601	c-0.643-1.433-1.698-2.81-3.156-3.478c-1.552-0.711-3.409-0.475-4.709,0.642c-1.31,1.127-1.648,2.942-1.68,4.592	c-0.032,1.645,0.345,3.284,1.063,4.763c0.722,1.487,1.814,2.797,3.137,3.786c1.351,1.01,3.33,1.367,4.983,1.215	c1.901-0.175,3.642-1.173,5.197-2.214c1.527-1.022,2.966-2.228,4.261-3.545c-0.005,0.75-0.009,1.499-0.012,2.249	c-1.384,1.372-2.862,2.633-4.619,3.508c-1.838,0.915-3.927,1.554-5.986,1.64c-3.601,0.15-7.11-2.283-8.622-5.48	c-1.511-3.194-1.817-7.669,0.141-10.741c1.195-1.874,3.064-2.67,5.241-2.568c1.156,0.054,2.289,0.184,3.281,0.825	c0.863,0.557,1.6,1.352,2.174,2.199c2.599,3.829,2.072,8.934-0.023,12.871c-0.622,0.171-1.248,0.251-1.88,0.245	C31.725,26.038,32.223,24.396,32.471,22.688z M29.937,27.51c-0.307-0.049-0.614-0.1-0.924-0.188	c-1.368-0.388-2.437-1.338-3.309-2.433c-1.794-2.251-2.542-5.432-1.734-8.222c0.48-1.659,2.111-2.756,3.847-2.417	c1.385,0.27,2.426,1.351,3.111,2.527c0.5,0.859,0.825,1.738,0.808,2.742c-0.014,0.87-0.08,1.744-0.188,2.607	C31.312,24.003,30.778,25.817,29.937,27.51z M41.261,32.087c-0.075,1.864-0.159,3.619-1.032,5.313	c-0.888,1.721-2.185,3.029-4.015,3.727c-2.017,0.769-4.361,0.562-6.484,0.603c-4.545,0.087-9.092,0.101-13.638,0.103	c-1.579,0.001-3.137,0.035-4.617-0.393c0.858-0.577,1.704-1.171,2.519-1.807c0.975-0.761,1.932-1.581,2.725-2.536	c0.439,0.175,0.892,0.326,1.381,0.431c1.56,0.333,3.112,0.496,4.692,0.188c1.914-0.372,3.724-1.127,5.26-2.334	c1.517-1.192,2.738-2.7,3.885-4.239c1.397-0.198,2.777-0.62,4.034-1.134c2.027-0.83,3.738-2.08,5.319-3.544	C41.299,28.34,41.336,30.213,41.261,32.087z M41.324,18.986c-0.001,0.804-0.008,1.608-0.013,2.411	c-1.141,1.253-2.402,2.323-3.733,3.368c-1.034,0.811-2.149,1.529-3.341,2.08c1.659-3.687,2.041-8.085,0.185-11.754	c-0.964-1.905-2.646-3.852-4.799-4.374c-2.213-0.536-4.771-0.449-6.628,0.982c-3.388,2.611-3.65,7.739-2.557,11.551	c0.522,1.819,1.426,3.582,2.787,4.917c1.192,1.168,2.87,2.2,4.523,2.715c-0.626,0.729-1.375,1.272-2.223,1.773	c-1.002,0.592-1.97,1.292-3.086,1.658c-1.232,0.404-2.635,0.358-3.891-0.067c1.277-2.625,2.232-5.68,1.04-8.496	c-0.325-0.768-0.78-1.354-1.563-1.681c-0.828-0.346-1.797-0.499-2.692-0.466c-1.764,0.065-3.211,0.95-3.997,2.531	c-0.362,0.729-0.737,1.49-0.773,2.318c-0.038,0.887,0.274,1.782,0.575,2.604c0.488,1.335,1.172,2.602,2.132,3.647	c-1.505,1.72-3.458,3.121-5.472,4.19c-0.544-0.76-0.914-1.645-1.093-2.652c-0.179-1.012-0.159-2.044-0.165-3.067	c-0.007-1.105-0.013-2.209-0.02-3.314c-0.014-2.222-0.028-4.444-0.042-6.665c-0.014-2.281,0.009-4.566-0.051-6.847	c-0.055-2.103-0.125-4.148,0.806-6.093c0.832-1.738,2.088-3.08,4.011-3.533c1.928-0.454,4.039-0.328,6.004-0.273	c4.339,0.122,8.682,0.042,13.021,0.002c1.159-0.011,2.318-0.021,3.478-0.032c1.627,0.004,3.37,0.042,4.701,1.104	c1.54,1.228,2.36,3.065,2.652,4.972C41.427,14.625,41.327,16.839,41.324,18.986z"/></svg>