<svg xmlns="http://www.w3.org/2000/svg"  viewBox="0 0 48 48" width="480px" height="480px"><path fill="#f26322" d="M6.6,6.8c-2,2.2-1.9,5.6-1.9,8.6C4.7,23,3.6,30.7,5,38.2c0.3,1.4,0.7,2.8,1.7,3.7c1.2,1,2.9,1.1,4.4,1.2 c8.7,0.3,17.4,0.5,26.1,0.1c1.5-0.1,3.2-0.3,4.3-1.3c0.8-0.8,1.1-2,1.4-3.2c0.8-4.2,0.8-8.4,0.7-12.7c-0.1-5.6-0.1-11.1-0.9-16.7 c-0.2-1.1-0.4-2.3-1.1-3.1c-1-1.3-2.8-1.6-4.4-1.7C32.1,4,26.8,4,21.6,4.2c-2.8,0.1-5.6,0.2-8.3,0.5C11,4.9,8.4,5,6.6,6.7 C6.7,6.7,6.6,6.8,6.6,6.8z"/><path fill="#d6e5e5" d="M27.8,32.7c-0.3-0.9-0.8-1.8-1.1-2.7c-0.8-2.5-0.8-5.3-1.6-7.8c-0.9-2.7-1.7-5.5-2.4-8.3 c-0.1-0.5-0.2-1.1-0.4-1.6c0-0.2-0.1-0.3-0.3-0.3c-0.7-0.1-1.5,0.1-2.2,0.2c-0.8,0.1-1.7,0.2-2.6,0.1c0,0-0.1,0.5-0.1,0.6 c-0.2,1.9-0.6,3.3-1.2,5.1c-0.6,1.9-1.3,3.7-2,5.6c-0.6,1.8-1.2,3.5-1.7,5.3c-0.3,0.9-0.5,1.8-0.7,2.7c-0.1,0.5-0.9,3.3-0.1,3.3 c0.8,0,1.6-0.1,2.4-0.1c0.2,0,1.5,0.1,1.6-0.2v-0.1c-0.1-0.8,0.4-1.4,0.7-2.1c0.3-0.7,0.5-1.4,0.7-2.2c0-0.1,0-0.1,0.1-0.2 c0.1-0.1,0.8,0,1.1,0c0.5,0,1-0.1,1.5-0.1c0.7,0,1.5,0,2.2,0c0.6,0,0.9-0.1,1.1,0.4c0.3,0.6,0.4,1.2,0.5,1.8c0.1,0.5,0.3,1,0.4,1.6 c0.1,0.3,0,0.9,0.4,1.1c0.2,0.1,0.8,0,1,0c0.4,0,0.8,0,1.2-0.1c0.6-0.1,1.3-0.1,1.8-0.3C28.3,33.8,28,33.2,27.8,32.7z M21.5,26.1 c-0.9,0-1.7,0.1-2.6,0.1c-0.4,0-1.5,0.1-1.7-0.3c-0.1-0.3,0.2-1,0.3-1.3c0.1-0.4,0.2-0.8,0.4-1.2c0.5-1.7,0.9-3.5,1.4-5.2 c0-0.1,0.1-0.2,0.1-0.3v-0.1c0.2,1.5,0.7,2.9,1.1,4.3c0.3,0.8,0.6,1.6,0.9,2.5C21.5,24.9,22.3,26.1,21.5,26.1z"/><path fill="#d6e5e5" d="M30.7,21.5c0,2.1-0.4,4.2-0.4,6.3c0,1.4,0,2.8,0,4.2c0,0.7,0,1.4,0.1,2.1c0.1,0.8,0.5,0.6,1.2,0.6 c0.9-0.1,1.9-0.1,2.8-0.1c0.1,0,0.1,0,0.2-0.1c0.3-0.9,0-2.3,0-3.2c-0.1-1.9-0.1-3.9-0.1-5.8c0-2.2,0.3-4.4-0.1-6.5 c0-0.1-0.1-0.2-0.1-0.3c-0.1,0-0.1,0-0.2,0c-0.5,0.1-1,0.2-1.5,0.2c-0.7,0-1.3,0-2,0C30.6,18.7,30.7,21.4,30.7,21.5z"/><path fill="#d6e5e5" d="M31.6,11.3c-1,0-1.6,1.1-1.7,2c0,0.4,0.1,0.9,0.2,1.3c0.2,0.5,0.5,1,1,1.4c0.4,0.3,0.8,0.5,1.3,0.5 c0.6,0.1,1.2-0.1,1.7-0.4c0.5-0.4,0.8-0.9,0.8-1.5c0-0.8-0.4-1.4-0.9-2.1c-0.2-0.3-0.4-0.5-0.6-0.7c-0.2-0.2-0.5-0.4-0.8-0.5 C32.2,11.2,31.8,11.3,31.6,11.3z"/><path fill="#010101" d="M28.3,32.5c-0.2-0.5-0.4-1-0.6-1.5c-0.2-0.4-0.4-0.8-0.5-1.2c-0.4-1.2-0.6-2.5-0.8-3.8c-0.2-1.3-0.4-2.7-0.8-4	c-0.9-2.8-1.7-5.8-2.4-8.3c0-0.2-0.1-0.4-0.1-0.5c-0.1-0.4-0.2-0.8-0.3-1.1c-0.2-0.4-0.5-0.5-0.7-0.5c-0.6-0.1-1.1,0-1.7,0.1	c-0.2,0-0.8,0.1-0.8,0.1c-0.8,0.1-1.6,0.1-2.4,0.1c-0.3,0-0.5,0.2-0.5,0.4c0,0-0.1,0.5-0.1,0.6c-0.2,1.9-0.6,3.3-1.2,5	c-0.3,0.9-0.6,1.8-0.9,2.7c-0.3,1-0.7,2-1,2.9c-0.5,1.6-1.2,3.4-1.7,5.3c-0.3,0.9-0.5,1.8-0.7,2.7v0.1c-0.5,2.1-0.6,3-0.2,3.5	c0.1,0.2,0.4,0.3,0.6,0.3c0.4,0,0.9,0,1.3,0c0.4,0,0.9-0.1,1.3-0.1c0.5,0,1.5,0.2,1.7-0.5c0-0.4,0.1-0.7,0.2-1.1	c0.1-0.3,0.4-0.7,0.4-1c0.3-0.7,0.5-1.4,0.7-2.1c0.1,0,0.4,0,0.5,0c0.6,0,1.2-0.1,1.8-0.1c0.9,0,1.9,0,2.8,0c0,0,0,0,0.1,0.1	c0.2,0.4,0.7,2.5,0.8,2.8l0.1,0.6c0,0.4,0.1,0.9,0.6,1.2c0.3,0.1,0.6,0.1,1.1,0.1c0.1,0,1.1,0,1.5-0.1h0.4c0.5,0,1-0.1,1.6-0.3	c0.2-0.1,0.3-0.3,0.3-0.5C28.8,33.9,28.4,32.7,28.3,32.5z M26.8,34.2c-0.1,0-1.2,0.1-1.6,0.1c-0.1,0-0.2,0-0.3,0c-0.1,0-0.5,0-0.5,0	c0-0.1-0.3-1.2-0.3-1.2c-0.1-0.4-0.2-0.7-0.3-1.1c0-0.1-0.1-0.3-0.1-0.4c-0.1-0.5-0.2-1-0.5-1.5c-0.4-0.7-0.9-0.7-1.3-0.7	c-0.1,0-0.1,0-0.3,0c-0.9,0-1.8,0-2.7,0c-0.5,0-0.9,0.1-1.4,0.1c-0.3,0-0.7,0-1,0.2c-0.2,0.1-0.2,0.3-0.2,0.4	c-0.2,0.7-0.4,1.4-0.7,2.1c-0.1,0.2-0.1,0.3-0.2,0.5c-0.2,0.5-0.5,1-0.5,1.6c-0.3,0-0.7,0-0.8,0c-0.6,0-1.1,0-1.7,0.1h-0.8	c0-0.2,0-0.9,0.4-2.5v-0.1c0.2-0.9,0.5-1.8,0.7-2.7c0.6-1.9,1.2-3.7,1.7-5.3c0.3-1,0.7-2,1-2.9s0.6-1.8,0.9-2.7	c0.6-1.8,1.3-5.2,1.3-5.2s0-0.1,0-0.2c0.7,0,2.7-0.2,2.9-0.2c0.5-0.1,0.9-0.1,1.3-0.1c0.2,0,0.7,3,0.8,3.3c0.6,2.2,1.2,4.4,1.9,6.6	c0.4,1.2,0.6,2.6,0.8,3.9c0.2,1.3,0.4,2.6,0.8,3.9c0.2,0.5,0.4,0.9,0.6,1.4c0.2,0.5,0.4,0.9,0.5,1.3c0.1,0.2,0.1,0.3,0.2,0.5	s0.2,0.5,0.2,0.7C27.5,34.1,27.2,34.1,26.8,34.2z M21,21.9c-0.4-1.4-0.9-2.8-1.1-4.1c0-0.3-0.3-0.5-0.6-0.4	c-0.5,0.2-0.6,0.9-0.7,1.3c-0.2,0.7-0.4,1.3-0.5,2c-0.2,0.9-0.4,1.7-0.7,2.6c0,0-0.1,0.3-0.1,0.3c-0.2,0.7-0.8,1.7-0.6,2.4	c0.2,0.6,0.9,0.7,1.5,0.7c1.1,0,2.2,0,3.3-0.1c0.4,0,0.6-0.2,0.7-0.4c0.3-0.5-0.1-1.2-0.3-1.6C21.9,24.5,21.3,22.8,21,21.9z M18.8,25.7c-0.5,0-0.8,0-1,0c0-0.2,0.1-0.5,0.2-0.6c0-0.1,0.5-1.4,0.5-1.4c0.3-0.9,0.5-1.8,0.7-2.6c0.1-0.3,0.2-0.6,0.2-0.9	c0.2,0.8,0.5,1.5,0.7,2.3c0.3,0.8,1.2,3.2,1.3,3.4C20.5,25.7,18.8,25.7,18.8,25.7z M44.2,25.9c-0.1-5.5-0.1-11.2-0.9-16.7	c-0.2-1.2-0.4-2.4-1.2-3.4c-1.1-1.4-2.9-1.7-4.7-1.9c-5.6-0.6-11.3-0.5-15.7-0.3c-2.3,0.1-5.3,0.2-8.3,0.5l-0.6,0.1	c-2.2,0.2-4.6,0.4-6.4,2.1c0,0-0.1,0.1-0.2,0.2l0,0c-2.1,2.3-2.1,5.7-2.1,8.7v0.3c0,2.4-0.1,4.9-0.2,7.3c-0.2,5.1-0.4,10.4,0.5,15.6	c0.3,1.4,0.7,3,1.9,4c1.3,1.1,2.9,1.2,4.7,1.3c5.5,0.2,10.6,0.3,15.6,0.3c3.6,0,7.1-0.1,10.6-0.3c1.6-0.1,3.5-0.3,4.7-1.5	c0.9-0.9,1.3-2.2,1.5-3.4C44.3,34.5,44.2,30.1,44.2,25.9z M42.5,38.5c-0.2,1.1-0.5,2.2-1.2,2.9c-1,1-2.5,1.1-4,1.2	c-8.4,0.5-16.8,0.2-26.1-0.1c-1.6-0.1-3.1-0.2-4.1-1S5.8,39.3,5.5,38c-1-5-0.7-10.3-0.5-15.4c0.1-2.4,0.2-4.9,0.2-7.3V15	c0-2.9-0.1-6,1.8-8c0,0.1,0.1,0,0.1,0c1.5-1.4,3.7-1.6,5.8-1.8l0.6-0.1c3-0.3,6-0.4,8.3-0.5c4.3-0.2,10-0.3,15.5,0.3	c1.6,0.2,3.2,0.5,4,1.5c0.6,0.8,0.8,1.8,1,2.9c0.8,5.5,0.8,11.1,0.9,16.6C43.2,30.1,43.3,34.4,42.5,38.5z M34.9,25.4	c0-0.7,0-1.3,0.1-2c0.1-1.5,0.1-3.1-0.2-4.6c-0.1-0.3-0.2-0.5-0.4-0.6s-0.7,0-0.7,0c-0.4,0.1-0.8,0.1-1.2,0.1h-2	c-0.3,0-0.5,0.2-0.5,0.5c0,0.1,0,0.1,0,0.1c0,0.4,0.1,2.5,0.1,2.7c0,1.1-0.1,2.3-0.2,3.4c-0.1,0.9-0.2,1.9-0.2,2.9	c0,1.4,0,2.8,0,4.3v0.5c0,0.5,0,1.1,0.1,1.7c0.1,0.9,0.7,1,1.1,1c0.1,0,0.3,0,0.4,0c0,0,2.2-0.1,3-0.1c0.4,0,0.5-0.3,0.6-0.5	C35.2,34,34.9,27.6,34.9,25.4z M34.2,34.1c0,0.1-1.4,0.1-1.5,0.1c-0.3,0-0.7,0-1,0c-0.1,0-0.8,0.1-0.9,0c0,0,0,0-0.1-0.2	c-0.1-0.5-0.1-1-0.1-1.5V32c-0.1-1.4-0.1-2.8,0-4.2c0-0.9,0.1-1.9,0.2-2.8c0.1-1.1,0.2-2.3,0.2-3.5c0-1.1,0-1.8,0-2.3h1.5	c0.5,0,1-0.1,1.5-0.1c0.3,1.4,0.2,2.8,0.1,4.3c0,0.7-0.1,1.4-0.1,2c0,2.3,0,4.1,0.1,5.9c0,0.3,0,0.6,0.1,0.9	C34.2,32.8,34.3,33.5,34.2,34.1z M33.8,11.4c-0.2-0.2-0.6-0.5-1.1-0.6c-0.4-0.1-0.8-0.1-1,0c-0.1,0-0.1,0-0.1,0	c-1.3,0-2.1,1.3-2.1,2.5c0,0.5,0.1,1,0.3,1.5c0.3,0.7,0.7,1.2,1.1,1.6c0.5,0.4,1,0.6,1.6,0.6c0.7,0,1.4-0.1,2-0.5	c0.6-0.5,1-1.2,1-1.9c0-0.9-0.5-1.7-1-2.4C34.3,12,34.1,11.7,33.8,11.4z M33.9,15.7C33.4,16,33,16.1,32.5,16c-0.4,0-0.8-0.2-1.1-0.4	c-0.3-0.3-0.6-0.7-0.8-1.3c-0.2-0.4-0.2-0.8-0.2-1.2c0-0.6,0.5-1.6,1.3-1.6c0.1,0,0.1,0,0.2,0c0.2,0,0.4,0,0.7,0	c0.2,0,0.4,0.1,0.6,0.3c0.2,0.2,0.4,0.4,0.5,0.7c0.4,0.6,0.8,1.3,0.8,1.9C34.4,14.9,34.2,15.5,33.9,15.7z"/></svg>