<?xml version="1.0" standalone="no"?>
<svg xmlns:xlink="http://www.w3.org/1999/xlink" id="wave" style="transform:rotate(180deg); transition: 0.3s" viewBox="0 0 1440 490" version="1.1" xmlns="http://www.w3.org/2000/svg"><defs><linearGradient id="sw-gradient-0" x1="0" x2="0" y1="1" y2="0"><stop stop-color="rgba(33, 37, 41, 1)" offset="0%"/><stop stop-color="rgba(33, 37, 41, 1)" offset="100%"/></linearGradient></defs><path style="transform:translate(0, 0px); opacity:1" fill="url(#sw-gradient-0)" d="M0,441L120,383.8C240,327,480,212,720,138.8C960,65,1200,33,1440,16.3C1680,0,1920,0,2160,8.2C2400,16,2640,33,2880,32.7C3120,33,3360,16,3600,32.7C3840,49,4080,98,4320,138.8C4560,180,4800,212,5040,253.2C5280,294,5520,343,5760,334.8C6000,327,6240,261,6480,196C6720,131,6960,65,7200,57.2C7440,49,7680,98,7920,171.5C8160,245,8400,343,8640,318.5C8880,294,9120,147,9360,122.5C9600,98,9840,196,10080,253.2C10320,310,10560,327,10800,302.2C11040,278,11280,212,11520,155.2C11760,98,12000,49,12240,73.5C12480,98,12720,196,12960,196C13200,196,13440,98,13680,122.5C13920,147,14160,294,14400,302.2C14640,310,14880,180,15120,122.5C15360,65,15600,82,15840,81.7C16080,82,16320,65,16560,114.3C16800,163,17040,278,17160,334.8L17280,392L17280,490L17160,490C17040,490,16800,490,16560,490C16320,490,16080,490,15840,490C15600,490,15360,490,15120,490C14880,490,14640,490,14400,490C14160,490,13920,490,13680,490C13440,490,13200,490,12960,490C12720,490,12480,490,12240,490C12000,490,11760,490,11520,490C11280,490,11040,490,10800,490C10560,490,10320,490,10080,490C9840,490,9600,490,9360,490C9120,490,8880,490,8640,490C8400,490,8160,490,7920,490C7680,490,7440,490,7200,490C6960,490,6720,490,6480,490C6240,490,6000,490,5760,490C5520,490,5280,490,5040,490C4800,490,4560,490,4320,490C4080,490,3840,490,3600,490C3360,490,3120,490,2880,490C2640,490,2400,490,2160,490C1920,490,1680,490,1440,490C1200,490,960,490,720,490C480,490,240,490,120,490L0,490Z"/></svg>